<svg width="150" height="150" viewBox="0 0 150 150" fill="none" xmlns="http://www.w3.org/2000/svg">
<mask id="mask0_17_3" style="mask-type:alpha" maskUnits="userSpaceOnUse" x="0" y="0" width="150" height="150">
<rect width="150" height="150" fill="white"/>
</mask>
<g mask="url(#mask0_17_3)">
<mask id="mask1_17_3" style="mask-type:alpha" maskUnits="userSpaceOnUse" x="0" y="0" width="150" height="150">
<circle cx="75" cy="75" r="75" fill="#D9D9D9"/>
</mask>
<g mask="url(#mask1_17_3)">
<rect width="150" height="150" fill="#E5722B"/>
</g>
<circle cx="75" cy="75" r="55" fill="white" stroke="black" stroke-width="10"/>
<path d="M57.752 32.8203C60.0957 32.8203 62.4395 33.377 64.7832 34.4902C66.0137 35.0762 66.8926 35.6328 67.4199 36.1602C74.5684 34.5781 80.8086 33.7871 86.1406 33.7871C90.5352 33.7871 93.9629 34.4316 96.4238 35.7207C98.5332 36.7754 99.5879 38.2695 99.5879 40.2031C99.5879 41.7266 98.8262 43.0742 97.3027 44.2461C99.5879 44.7148 101.492 45.5352 103.016 46.707C105.652 48.7578 106.971 52.625 106.971 58.3086C106.971 62.8203 106.326 65.8379 105.037 67.3613C104.627 67.8887 104.129 68.2988 103.543 68.5918C103.133 69.0605 102.371 69.3242 101.258 69.3828C91.6484 69.7344 82.7129 70.291 74.4512 71.0527C74.4512 72.2832 74.4512 73.4551 74.4512 74.5684C83.7676 73.1621 90.1543 72.459 93.6113 72.459C98.416 72.459 102.049 73.4551 104.51 75.4473C107.088 77.4395 108.377 81.1895 108.377 86.6973C108.377 90.0371 107.996 92.498 107.234 94.0801C108.348 95.9551 109.959 97.9473 112.068 100.057C114.061 101.697 115.057 103.309 115.057 104.891C115.057 107.586 112.684 110.018 107.938 112.186C103.133 114.354 95.8086 115.438 85.9648 115.438C74.3047 115.438 66.8047 113.65 63.4648 110.076C61.7656 108.318 60.4473 106.385 59.5098 104.275C58.2207 104.51 56.9609 104.773 55.7305 105.066C52.2734 105.828 49.5488 106.209 47.5566 106.209C44.2168 106.209 41.6094 105.184 39.7344 103.133C37.8594 101.082 36.9219 98.2402 36.9219 94.6074C36.9219 88.0449 36.5703 83.8848 35.8672 82.127C35.1641 81.0723 34.8125 80.1934 34.8125 79.4902C34.8125 77.1465 36.248 75.9746 39.1191 75.9746C41.7559 75.9746 43.8066 76.9121 45.2715 78.7871C45.2715 78.8457 45.3008 78.9043 45.3594 78.9629C47.293 78.7871 49.5488 78.4941 52.127 78.084C54.1777 77.7324 56.1699 77.4102 58.1035 77.1172C58.1621 76.4141 58.1914 75.7402 58.1914 75.0957C58.25 74.3926 58.2793 73.6895 58.2793 72.9863C57.1074 73.1621 55.9941 73.3086 54.9395 73.4258C51.4824 74.0117 48.7871 74.3047 46.8535 74.3047C44.3926 74.3047 42.459 73.5137 41.0527 71.9316C39.7637 70.4668 39.1191 68.4453 39.1191 65.8672C39.1191 60.418 38.5918 57.0195 37.5371 55.6719C36.7168 54.793 36.3066 54.0605 36.3066 53.4746C36.3066 51.4238 37.5957 50.3984 40.1738 50.3984C40.5254 50.3984 40.8477 50.4277 41.1406 50.4863C40.3789 50.0176 39.6172 49.4902 38.8555 48.9043C36.9219 47.0879 35.9551 45.5938 35.9551 44.4219C35.9551 43.543 36.4531 43.0742 37.4492 43.0156C41.082 42.4297 45.4766 40.877 50.6328 38.3574C53.8555 36.834 55.584 35.6621 55.8184 34.8418L55.9062 34.1387C56.0234 33.2598 56.6387 32.8203 57.752 32.8203ZM90.7109 63.582C90.7109 63.4648 90.7109 63.4062 90.7109 63.4062C90.7109 62.4688 90.7402 61.3262 90.7988 59.9785C85.4082 60.3301 80.0176 60.8281 74.627 61.4727C74.627 62.7617 74.5977 63.9922 74.5391 65.1641C80.9258 64.3438 86.3164 63.8164 90.7109 63.582ZM58.3672 67.4492C58.4258 66.2773 58.4551 65.1055 58.4551 63.9336C54.998 64.4023 52.0391 64.666 49.5781 64.7246C49.5781 64.8418 49.5781 64.959 49.5781 65.0762C49.5781 66.9512 50.6328 67.8887 52.7422 67.8887C54.0312 67.8887 55.9062 67.7422 58.3672 67.4492ZM49.2266 60.5059C51.3359 60.1543 54.3242 59.5977 58.1914 58.8359C57.957 57.6641 57.459 56.668 56.6973 55.8477C56.6973 55.7891 56.668 55.7305 56.6094 55.6719C55.8477 55.8477 55.0859 56.0234 54.3242 56.1992C52.0977 56.668 50.1641 57.0195 48.5234 57.2539C48.8164 58.25 49.0508 59.334 49.2266 60.5059ZM73.4844 52.4199C73.9531 53.2988 74.2754 54.3535 74.4512 55.584C79.959 54.7051 84.8223 54.2656 89.041 54.2656C89.7441 54.2656 90.418 54.3242 91.0625 54.4414C91.0625 54.0312 91.0625 53.709 91.0625 53.4746C91.0625 51.8926 89.6562 51.1016 86.8438 51.1016C83.6797 51.1016 79.2266 51.541 73.4844 52.4199ZM44.7441 51.6289C46.7363 51.3945 49.1387 51.0137 51.9512 50.4863C63.3184 48.0254 72.3711 46.209 79.1094 45.0371C81.4531 43.1621 82.625 41.7852 82.625 40.9062C82.625 40.4375 82.3027 40.2031 81.6582 40.2031C77.3809 40.2031 71.0527 41.375 62.6738 43.7188C53.5332 48.875 47.7617 51.4531 45.3594 51.4531C45.0664 51.4531 44.7441 51.4238 44.3926 51.3652C44.5098 51.4238 44.627 51.5117 44.7441 51.6289ZM75.5938 101.639C75.6523 101.756 75.7109 101.873 75.7695 101.99C77.1758 103.689 81.0137 104.539 87.2832 104.539C94.0801 104.539 98.4746 103.484 100.467 101.375C100.994 100.789 101.492 100.115 101.961 99.3535C92.5273 99.8223 83.7383 100.584 75.5938 101.639ZM92.9082 91.1797C92.9082 90.418 92.9375 89.5684 92.9961 88.6309C86.6094 89.041 80.252 89.627 73.9238 90.3887C73.9238 91.6191 73.9238 92.791 73.9238 93.9043C81.5996 92.3809 87.9277 91.4727 92.9082 91.1797ZM57.8398 97.2441C57.7812 96.6582 57.752 96.043 57.752 95.3984C57.752 94.4609 57.752 93.5527 57.752 92.6738C54.4121 93.084 51.4531 93.3477 48.875 93.4648C48.875 93.6406 48.875 93.8164 48.875 93.9922C48.875 96.5117 50.1641 97.7715 52.7422 97.7715C53.9141 97.7715 55.6133 97.5957 57.8398 97.2441ZM48.5234 88.9824C50.9844 88.6309 54.0898 88.0742 57.8398 87.3125C57.8398 86.0234 57.8691 84.7344 57.9277 83.4453C56.8145 83.5625 55.7305 83.709 54.6758 83.8848C52.0391 84.3535 49.7832 84.6758 47.9082 84.8516C48.2012 86.082 48.4062 87.459 48.5234 88.9824ZM74.1875 81.1602C74.1289 82.2148 74.0703 83.2695 74.0117 84.3242C81.3945 83.0352 87.8105 82.3906 93.2598 82.3906C93.2598 80.6914 91.9707 79.8418 89.3926 79.8418C85.8184 79.8418 80.75 80.2812 74.1875 81.1602Z" fill="black"/>
</g>
</svg>
